<svg width="40" height="40" xmlns="http://www.w3.org/2000/svg">
 <!-- Created with Method Draw - http://github.com/duopixel/Method-Draw/ -->

 <g>
  <title>background</title>
  <rect fill="#fff" id="canvas_background" height="42" width="42" y="-1" x="-1"/>
  <g display="none" overflow="visible" y="0" x="0" height="100%" width="100%" id="canvasGrid">
   <rect fill="url(#gridpattern)" stroke-width="0" y="0" x="0" height="100%" width="100%"/>
  </g>
 </g>
 <g>
  <title>Layer 1</title>
  <g id="svg_6">
   <g transform="matrix(0.06781683510376357,0,0,0.06781683510376357,0,0) " id="svg_4">
    <path id="svg_5" fill="#000000" d="m3892.8311,385.020764c59.538,112.29 142.51,202.35 232.28,292.718l3.626,3.75l0.063,-0.062c21.827,21.93 44.04,43.923 66.405,66.25c-18.856,14.813 -38.974,28.2 -59.938,40.312l28.532,28.53l68.717,-68.717c42.337,27.636 76.286,63.646 104.094,105.81l28.064,-28.06c-42.47,-27.493 -79.74,-60.206 -106.03,-103.876l68.936,-68.938l-28.53,-28.53c-11.115,21.853 -24.413,42.015 -39.47,60.593c-43.852,-43.8 -86.462,-85.842 -130.125,-125.47c-0.224,-0.203 -0.432,-0.422 -0.656,-0.625c-72.094,-65.373 -147.203,-124.213 -235.968,-173.686l0,0.001zm471.875,-0.001c-83.038,46.28 -154.122,100.78 -221.97,161.156l22.814,21.562l56.81,-56.812l13.22,13.187l-56.438,56.44l24.594,23.186c61.802,-66.92 117.6,-136.92 160.97,-218.72l0,0.001zm-329.53,125.906l200.56,200.53c-4.36,4.443 -8.84,8.793 -13.405,13.032l-200.375,-200.375l13.22,-13.186l0,-0.001zm-76.69,113.28l-28.5,28.532l68.907,68.906c-26.29,43.673 -63.53,76.414 -106,103.907l28.063,28.06c27.807,-42.164 61.758,-78.174 104.094,-105.81l68.718,68.717l28.53,-28.53c-20.962,-12.113 -41.08,-25.5 -59.937,-40.313c17.865,-17.83 35.61,-35.433 53.157,-52.97l-24.843,-25.655l-55.47,55.467c-4.565,-4.238 -9.014,-8.62 -13.374,-13.062l55.844,-55.844l-24.53,-25.374c-18.28,17.856 -36.602,36.06 -55.158,54.594c-15.068,-18.587 -28.38,-38.758 -39.5,-60.625l-0.001,0z"/>
   </g>
  </g>
  <g id="svg_9">
   <g transform="matrix(0.06781683510376357,0,0,0.06781683510376357,0,0) " id="svg_8">
    <path id="svg_7" fill="#000000" d="m4453.163925,370.275159c59.538,112.29 142.51,202.35 232.28,292.718l3.626,3.75l0.063,-0.062c21.827,21.93 44.04,43.923 66.405,66.25c-18.856,14.813 -38.974,28.2 -59.938,40.312l28.532,28.53l68.717,-68.717c42.337,27.636 76.286,63.646 104.094,105.81l28.064,-28.06c-42.47,-27.493 -79.74,-60.206 -106.03,-103.876l68.936,-68.938l-28.53,-28.53c-11.115,21.853 -24.413,42.015 -39.47,60.593c-43.852,-43.8 -86.462,-85.842 -130.125,-125.47c-0.224,-0.203 -0.432,-0.422 -0.656,-0.625c-72.094,-65.373 -147.203,-124.213 -235.968,-173.686l0,0.001zm471.875,-0.001c-83.038,46.28 -154.122,100.78 -221.97,161.156l22.814,21.562l56.81,-56.812l13.22,13.187l-56.438,56.44l24.594,23.186c61.802,-66.92 117.6,-136.92 160.97,-218.72l0,0.001zm-329.53,125.906l200.56,200.53c-4.36,4.443 -8.84,8.793 -13.405,13.032l-200.375,-200.375l13.22,-13.186l0,-0.001zm-76.69,113.28l-28.5,28.532l68.907,68.906c-26.29,43.673 -63.53,76.414 -106,103.907l28.063,28.06c27.807,-42.164 61.758,-78.174 104.094,-105.81l68.718,68.717l28.53,-28.53c-20.962,-12.113 -41.08,-25.5 -59.937,-40.313c17.865,-17.83 35.61,-35.433 53.157,-52.97l-24.843,-25.655l-55.47,55.467c-4.565,-4.238 -9.014,-8.62 -13.374,-13.062l55.844,-55.844l-24.53,-25.374c-18.28,17.856 -36.602,36.06 -55.158,54.594c-15.068,-18.587 -28.38,-38.758 -39.5,-60.625l-0.001,0z"/>
   </g>
  </g>
  <g stroke="null" id="svg_15">
   <g stroke="null" transform="matrix(0.0434036759913079,0,0,0.04180315726401664,0,0.0029784966357104814) " id="svg_13">
    <path stroke="null" id="svg_14" fill="#000000" d="m-11.299683,1.862957c59.538,112.29 142.51,202.35 232.28,292.718l3.626,3.75l0.063,-0.062c21.827,21.93 44.04,43.923 66.405,66.25c-18.856,14.813 -38.974,28.2 -59.938,40.312l28.532,28.53l68.717,-68.717c42.337,27.636 76.286,63.646 104.094,105.81l28.064,-28.06c-42.47,-27.493 -79.74,-60.206 -106.03,-103.876l68.936,-68.938l-28.53,-28.53c-11.115,21.853 -24.413,42.015 -39.47,60.593c-43.852,-43.8 -86.462,-85.842 -130.125,-125.47c-0.224,-0.203 -0.432,-0.422 -0.656,-0.625c-72.094,-65.373 -147.203,-124.213 -235.968,-173.686l0,0.001zm471.875,-0.001c-83.038,46.28 -154.122,100.78 -221.97,161.156l22.814,21.562l56.81,-56.812l13.22,13.187l-56.438,56.44l24.594,23.186c61.802,-66.92 117.6,-136.92 160.97,-218.72l0,0.001zm-329.53,125.906l200.56,200.53c-4.36,4.443 -8.84,8.793 -13.405,13.032l-200.375,-200.375l13.22,-13.186l0,-0.001zm-76.69,113.28l-28.5,28.532l68.907,68.906c-26.29,43.673 -63.53,76.414 -106,103.907l28.063,28.06c27.807,-42.164 61.758,-78.174 104.094,-105.81l68.718,68.717l28.53,-28.53c-20.962,-12.113 -41.08,-25.5 -59.937,-40.313c17.865,-17.83 35.61,-35.433 53.157,-52.97l-24.843,-25.655l-55.47,55.467c-4.565,-4.238 -9.014,-8.62 -13.374,-13.062l55.844,-55.844l-24.53,-25.374c-18.28,17.856 -36.602,36.06 -55.158,54.594c-15.068,-18.587 -28.38,-38.758 -39.5,-60.625l-0.001,0z"/>
   </g>
  </g>
  <g stroke="null" id="svg_18">
   <g stroke="null" transform="matrix(0.0434036759913079,0,0,0.04180315726401664,0,0.0029784966357104814) " id="svg_17">
    <path stroke="null" id="svg_16" fill="#000000" d="m446.606112,480.290755c59.538,112.29 142.51,202.35 232.28,292.718l3.626,3.75l0.063,-0.062c21.827,21.93 44.04,43.923 66.405,66.25c-18.856,14.813 -38.974,28.2 -59.938,40.312l28.532,28.53l68.717,-68.717c42.337,27.636 76.286,63.646 104.094,105.81l28.064,-28.06c-42.47,-27.493 -79.74,-60.206 -106.03,-103.876l68.936,-68.938l-28.53,-28.53c-11.115,21.853 -24.413,42.015 -39.47,60.593c-43.852,-43.8 -86.462,-85.842 -130.125,-125.47c-0.224,-0.203 -0.432,-0.422 -0.656,-0.625c-72.094,-65.373 -147.203,-124.213 -235.968,-173.686l0,0.001zm471.875,-0.001c-83.038,46.28 -154.122,100.78 -221.97,161.156l22.814,21.562l56.81,-56.812l13.22,13.187l-56.438,56.44l24.594,23.186c61.802,-66.92 117.6,-136.92 160.97,-218.72l0,0.001zm-329.53,125.906l200.56,200.53c-4.36,4.443 -8.84,8.793 -13.405,13.032l-200.375,-200.375l13.22,-13.186l0,-0.001zm-76.69,113.28l-28.5,28.532l68.907,68.906c-26.29,43.673 -63.53,76.414 -106,103.907l28.063,28.06c27.807,-42.164 61.758,-78.174 104.094,-105.81l68.718,68.717l28.53,-28.53c-20.962,-12.113 -41.08,-25.5 -59.937,-40.313c17.865,-17.83 35.61,-35.433 53.157,-52.97l-24.843,-25.655l-55.47,55.467c-4.565,-4.238 -9.014,-8.62 -13.374,-13.062l55.844,-55.844l-24.53,-25.374c-18.28,17.856 -36.602,36.06 -55.158,54.594c-15.068,-18.587 -28.38,-38.758 -39.5,-60.625l-0.001,0z"/>
   </g>
  </g>
 </g>
</svg>