<?xml version="1.0" encoding="utf-8"?>
<svg id="master-artboard" viewBox="0 0 980 980" version="1.1" xmlns="http://www.w3.org/2000/svg" x="0px" y="0px" style="enable-background:new 0 0 1400 980;" width="980px" height="980px"><rect id="ee-background" x="0" y="0" width="980" height="980" style="fill: white; fill-opacity: 0; pointer-events: none;" transform="matrix(0.9999999403953552, 0, 0, 0.9999999403953552, 0.000009497078266917924, 0.00003051758176297881)"/><title>background</title><path d="M -1 -1 H 41 V 41 H -1 V -1 Z" fill="#fff" id="canvas_background" transform="matrix(24.499996632337684, 0, 0, 24.499996632337684, 25.85001405981346, -3.5872755296607437)" style="fill-opacity: 0;"/><title>Layer 1</title><title>background</title><path d="M 0 0 H 0 V 0 H 0 V 0 Z" fill="url(#gridpattern)" stroke-width="0" transform="matrix(24.499996185302734, 0, 0, 24.499996185302734, 0.00001899416018602551, 0.00006103516352595761)"/><title>Layer 1</title><g stroke="null" transform="matrix(1.0633898453959745, 0, 0, 1.0241771403460547, 19.916830062866197, 2.562635578494593)" id="g-2">
    <path stroke="null" id="path-3" fill="#000000" d="m-11.299683,1.862957c59.538,112.29 142.51,202.35 232.28,292.718l3.626,3.75l0.063,-0.062c21.827,21.93 44.04,43.923 66.405,66.25c-18.856,14.813 -38.974,28.2 -59.938,40.312l28.532,28.53l68.717,-68.717c42.337,27.636 76.286,63.646 104.094,105.81l28.064,-28.06c-42.47,-27.493 -79.74,-60.206 -106.03,-103.876l68.936,-68.938l-28.53,-28.53c-11.115,21.853 -24.413,42.015 -39.47,60.593c-43.852,-43.8 -86.462,-85.842 -130.125,-125.47c-0.224,-0.203 -0.432,-0.422 -0.656,-0.625c-72.094,-65.373 -147.203,-124.213 -235.968,-173.686l0,0.001zm471.875,-0.001c-83.038,46.28 -154.122,100.78 -221.97,161.156l22.814,21.562l56.81,-56.812l13.22,13.187l-56.438,56.44l24.594,23.186c61.802,-66.92 117.6,-136.92 160.97,-218.72l0,0.001zm-329.53,125.906l200.56,200.53c-4.36,4.443 -8.84,8.793 -13.405,13.032l-200.375,-200.375l13.22,-13.186l0,-0.001zm-76.69,113.28l-28.5,28.532l68.907,68.906c-26.29,43.673 -63.53,76.414 -106,103.907l28.063,28.06c27.807,-42.164 61.758,-78.174 104.094,-105.81l68.718,68.717l28.53,-28.53c-20.962,-12.113 -41.08,-25.5 -59.937,-40.313c17.865,-17.83 35.61,-35.433 53.157,-52.97l-24.843,-25.655l-55.47,55.467c-4.565,-4.238 -9.014,-8.62 -13.374,-13.062l55.844,-55.844l-24.53,-25.374c-18.28,17.856 -36.602,36.06 -55.158,54.594c-15.068,-18.587 -28.38,-38.758 -39.5,-60.625l-0.001,0z" style="fill: rgb(255, 255, 255);"/>
   </g><g stroke="null" transform="matrix(1.0633898453959745, 0, 0, 1.0241771403460547, 0.00001899416018602551, 0.07303420482937639)" id="g-3">
    <path stroke="null" id="path-4" fill="#000000" d="m446.606112,480.290755c59.538,112.29 142.51,202.35 232.28,292.718l3.626,3.75l0.063,-0.062c21.827,21.93 44.04,43.923 66.405,66.25c-18.856,14.813 -38.974,28.2 -59.938,40.312l28.532,28.53l68.717,-68.717c42.337,27.636 76.286,63.646 104.094,105.81l28.064,-28.06c-42.47,-27.493 -79.74,-60.206 -106.03,-103.876l68.936,-68.938l-28.53,-28.53c-11.115,21.853 -24.413,42.015 -39.47,60.593c-43.852,-43.8 -86.462,-85.842 -130.125,-125.47c-0.224,-0.203 -0.432,-0.422 -0.656,-0.625c-72.094,-65.373 -147.203,-124.213 -235.968,-173.686l0,0.001zm471.875,-0.001c-83.038,46.28 -154.122,100.78 -221.97,161.156l22.814,21.562l56.81,-56.812l13.22,13.187l-56.438,56.44l24.594,23.186c61.802,-66.92 117.6,-136.92 160.97,-218.72l0,0.001zm-329.53,125.906l200.56,200.53c-4.36,4.443 -8.84,8.793 -13.405,13.032l-200.375,-200.375l13.22,-13.186l0,-0.001zm-76.69,113.28l-28.5,28.532l68.907,68.906c-26.29,43.673 -63.53,76.414 -106,103.907l28.063,28.06c27.807,-42.164 61.758,-78.174 104.094,-105.81l68.718,68.717l28.53,-28.53c-20.962,-12.113 -41.08,-25.5 -59.937,-40.313c17.865,-17.83 35.61,-35.433 53.157,-52.97l-24.843,-25.655l-55.47,55.467c-4.565,-4.238 -9.014,-8.62 -13.374,-13.062l55.844,-55.844l-24.53,-25.374c-18.28,17.856 -36.602,36.06 -55.158,54.594c-15.068,-18.587 -28.38,-38.758 -39.5,-60.625l-0.001,0z" style="fill: rgb(255, 255, 255);"/>
   </g></svg>