<?xml version="1.0" standalone="no"?><!-- Generator: Gravit.io --><svg xmlns="http://www.w3.org/2000/svg" xmlns:xlink="http://www.w3.org/1999/xlink" style="isolation:isolate" viewBox="0 0 40 40" width="40" height="40"><defs><clipPath id="_clipPath_1YW2dts0vayCcHcCxJB7ZsjuqUkHlQ8G"><rect width="40" height="40"/></clipPath></defs><g clip-path="url(#_clipPath_1YW2dts0vayCcHcCxJB7ZsjuqUkHlQ8G)"><polygon points="1.773,13,19.627,0,37.76,12.933" fill="rgb(217,217,166)"/><polygon points="37.989,13.329,20.131,39.968,1.994,13.467" fill="rgb(217,217,166)"/><g><path d=" M -94 10 C -92.738 12.396 -90.98 14.318 -89.078 16.247 L -89.001 16.327 L -88.999 16.325 C -88.537 16.793 -88.066 17.263 -87.592 17.739 C -87.992 18.055 -88.418 18.341 -88.862 18.6 L -88.258 19.208 L -86.801 17.742 C -85.904 18.332 -85.185 19.1 -84.595 20 L -84.001 19.401 C -84.901 18.814 -85.691 18.116 -86.248 17.184 L -84.787 15.713 L -85.391 15.104 C -85.627 15.571 -85.909 16.001 -86.228 16.397 C -87.157 15.463 -88.06 14.566 -88.985 13.72 C -88.99 13.716 -88.995 13.711 -88.999 13.707 C -90.527 12.311 -92.119 11.056 -94 10 L -94 10 Z  M -84 10 C -85.76 10.988 -87.266 12.151 -88.704 13.439 L -88.221 13.899 L -87.017 12.687 L -86.736 12.968 L -87.932 14.173 L -87.411 14.668 C -86.102 13.239 -84.919 11.746 -84 10 L -84 10 Z  M -90.983 12.687 L -86.733 16.966 C -86.826 17.061 -86.92 17.154 -87.017 17.244 L -91.264 12.968 L -90.983 12.687 L -90.983 12.687 Z  M -92.609 15.104 L -93.213 15.713 L -91.752 17.184 C -92.309 18.116 -93.099 18.814 -93.999 19.401 L -93.404 20 C -92.815 19.1 -92.095 18.332 -91.198 17.742 L -89.742 19.208 L -89.137 18.6 C -89.581 18.341 -90.008 18.055 -90.407 17.739 C -90.029 17.359 -89.653 16.983 -89.281 16.609 L -89.807 16.061 L -90.983 17.245 C -91.08 17.155 -91.174 17.061 -91.266 16.966 L -90.083 15.775 L -90.603 15.233 C -90.99 15.614 -91.378 16.003 -91.772 16.398 C -92.091 16.001 -92.373 15.571 -92.609 15.104 L -92.609 15.104 Z " fill="rgb(0,0,0)"/></g><g><path d=" M -39 -12 C -37.738 -9.604 -35.98 -7.682 -34.078 -5.753 L -34.001 -5.673 L -33.999 -5.675 C -33.537 -5.207 -33.066 -4.737 -32.592 -4.261 C -32.992 -3.945 -33.418 -3.659 -33.862 -3.4 L -33.258 -2.792 L -31.801 -4.258 C -30.904 -3.668 -30.185 -2.9 -29.595 -2 L -29.001 -2.599 C -29.901 -3.186 -30.691 -3.884 -31.248 -4.816 L -29.787 -6.287 L -30.391 -6.896 C -30.627 -6.429 -30.909 -5.999 -31.228 -5.603 C -32.157 -6.537 -33.06 -7.434 -33.985 -8.28 C -33.99 -8.284 -33.995 -8.289 -33.999 -8.293 C -35.527 -9.689 -37.119 -10.944 -39 -12 L -39 -12 Z  M -29 -12 C -30.76 -11.012 -32.266 -9.849 -33.704 -8.561 L -33.221 -8.101 L -32.017 -9.313 L -31.736 -9.032 L -32.932 -7.827 L -32.411 -7.332 C -31.102 -8.761 -29.919 -10.254 -29 -12 L -29 -12 Z  M -35.983 -9.313 L -31.733 -5.034 C -31.826 -4.939 -31.92 -4.846 -32.017 -4.756 L -36.264 -9.032 L -35.983 -9.313 L -35.983 -9.313 Z  M -37.609 -6.896 L -38.213 -6.287 L -36.752 -4.816 C -37.309 -3.884 -38.099 -3.186 -38.999 -2.599 L -38.404 -2 C -37.815 -2.9 -37.095 -3.668 -36.198 -4.258 L -34.742 -2.792 L -34.137 -3.4 C -34.581 -3.659 -35.008 -3.945 -35.407 -4.261 C -35.029 -4.641 -34.653 -5.017 -34.281 -5.391 L -34.807 -5.939 L -35.983 -4.755 C -36.08 -4.845 -36.174 -4.939 -36.266 -5.034 L -35.083 -6.225 L -35.603 -6.767 C -35.99 -6.386 -36.378 -5.997 -36.772 -5.602 C -37.091 -5.999 -37.373 -6.429 -37.609 -6.896 L -37.609 -6.896 Z " fill="rgb(0,0,0)"/></g><g><path d=" M -0.233 -0.032 C 4.814 9.553 11.847 17.241 19.457 24.955 L 19.764 25.275 L 19.769 25.27 C 21.62 27.142 23.503 29.019 25.398 30.925 C 23.8 32.189 22.095 33.332 20.318 34.366 L 22.736 36.801 L 28.561 30.936 C 32.15 33.295 35.028 36.369 37.385 39.968 L 39.764 37.572 C 36.164 35.226 33.005 32.433 30.776 28.705 L 36.62 22.821 L 34.201 20.385 C 33.259 22.251 32.132 23.972 30.855 25.558 C 27.138 21.819 23.526 18.23 19.825 14.847 C 19.806 14.83 19.788 14.811 19.769 14.794 C 13.658 9.214 7.291 4.191 -0.233 -0.032 L -0.233 -0.032 Z  M 39.767 -0.032 C 32.728 3.918 26.702 8.571 20.951 13.724 L 22.885 15.565 L 27.7 10.715 L 28.821 11.841 L 24.037 16.659 L 26.122 18.638 C 31.36 12.926 36.09 6.95 39.767 -0.032 L 39.767 -0.032 Z  M 11.833 10.715 L 28.834 27.833 C 28.465 28.212 28.085 28.584 27.698 28.946 L 10.712 11.841 L 11.833 10.715 L 11.833 10.715 Z  M 5.332 20.385 L 2.916 22.821 L 8.757 28.703 C 6.529 32.431 3.372 35.226 -0.228 37.572 L 2.151 39.968 C 4.508 36.369 7.386 33.295 10.975 30.936 L 16.8 36.801 L 19.218 34.366 C 17.441 33.332 15.736 32.189 14.137 30.925 C 15.652 29.403 17.156 27.9 18.643 26.403 L 16.538 24.213 L 11.835 28.948 C 11.449 28.586 11.071 28.212 10.702 27.833 L 15.436 23.066 L 13.356 20.9 C 11.807 22.424 10.254 23.978 8.681 25.56 C 7.403 23.974 6.275 22.252 5.332 20.385 L 5.332 20.385 Z " fill="rgb(0,0,0)"/></g></g></svg>