<?xml version="1.0" standalone="no"?><!-- Generator: Gravit.io --><svg xmlns="http://www.w3.org/2000/svg" xmlns:xlink="http://www.w3.org/1999/xlink" style="isolation:isolate" viewBox="0 0 40 40" width="40" height="40"><defs><clipPath id="_clipPath_uSeh20u5AmAG1HCFvuFYEoQ9FPYwhGEU"><rect width="40" height="40"/></clipPath></defs><g clip-path="url(#_clipPath_uSeh20u5AmAG1HCFvuFYEoQ9FPYwhGEU)"><polygon points="1.773,13,19.627,0,37.76,12.933" fill="rgb(217,217,166)"/><polygon points="37.989,13.329,20.131,39.968,1.994,13.467" fill="rgb(217,217,166)"/><g><path d=" M -94 10 C -92.738 12.396 -90.98 14.318 -89.078 16.247 L -89.001 16.327 L -88.999 16.325 C -88.537 16.793 -88.066 17.263 -87.592 17.739 C -87.992 18.055 -88.418 18.341 -88.862 18.6 L -88.258 19.208 L -86.801 17.742 C -85.904 18.332 -85.185 19.1 -84.595 20 L -84.001 19.401 C -84.901 18.814 -85.691 18.116 -86.248 17.184 L -84.787 15.713 L -85.391 15.104 C -85.627 15.571 -85.909 16.001 -86.228 16.397 C -87.157 15.463 -88.06 14.566 -88.985 13.72 C -88.99 13.716 -88.995 13.711 -88.999 13.707 C -90.527 12.311 -92.119 11.056 -94 10 L -94 10 Z  M -84 10 C -85.76 10.988 -87.266 12.151 -88.704 13.439 L -88.221 13.899 L -87.017 12.687 L -86.736 12.968 L -87.932 14.173 L -87.411 14.668 C -86.102 13.239 -84.919 11.746 -84 10 L -84 10 Z  M -90.983 12.687 L -86.733 16.966 C -86.826 17.061 -86.92 17.154 -87.017 17.244 L -91.264 12.968 L -90.983 12.687 L -90.983 12.687 Z  M -92.609 15.104 L -93.213 15.713 L -91.752 17.184 C -92.309 18.116 -93.099 18.814 -93.999 19.401 L -93.404 20 C -92.815 19.1 -92.095 18.332 -91.198 17.742 L -89.742 19.208 L -89.137 18.6 C -89.581 18.341 -90.008 18.055 -90.407 17.739 C -90.029 17.359 -89.653 16.983 -89.281 16.609 L -89.807 16.061 L -90.983 17.245 C -91.08 17.155 -91.174 17.061 -91.266 16.966 L -90.083 15.775 L -90.603 15.233 C -90.99 15.614 -91.378 16.003 -91.772 16.398 C -92.091 16.001 -92.373 15.571 -92.609 15.104 L -92.609 15.104 Z " fill="rgb(0,0,0)"/></g><g><path d=" M -39 -12 C -37.738 -9.604 -35.98 -7.682 -34.078 -5.753 L -34.001 -5.673 L -33.999 -5.675 C -33.537 -5.207 -33.066 -4.737 -32.592 -4.261 C -32.992 -3.945 -33.418 -3.659 -33.862 -3.4 L -33.258 -2.792 L -31.801 -4.258 C -30.904 -3.668 -30.185 -2.9 -29.595 -2 L -29.001 -2.599 C -29.901 -3.186 -30.691 -3.884 -31.248 -4.816 L -29.787 -6.287 L -30.391 -6.896 C -30.627 -6.429 -30.909 -5.999 -31.228 -5.603 C -32.157 -6.537 -33.06 -7.434 -33.985 -8.28 C -33.99 -8.284 -33.995 -8.289 -33.999 -8.293 C -35.527 -9.689 -37.119 -10.944 -39 -12 L -39 -12 Z  M -29 -12 C -30.76 -11.012 -32.266 -9.849 -33.704 -8.561 L -33.221 -8.101 L -32.017 -9.313 L -31.736 -9.032 L -32.932 -7.827 L -32.411 -7.332 C -31.102 -8.761 -29.919 -10.254 -29 -12 L -29 -12 Z  M -35.983 -9.313 L -31.733 -5.034 C -31.826 -4.939 -31.92 -4.846 -32.017 -4.756 L -36.264 -9.032 L -35.983 -9.313 L -35.983 -9.313 Z  M -37.609 -6.896 L -38.213 -6.287 L -36.752 -4.816 C -37.309 -3.884 -38.099 -3.186 -38.999 -2.599 L -38.404 -2 C -37.815 -2.9 -37.095 -3.668 -36.198 -4.258 L -34.742 -2.792 L -34.137 -3.4 C -34.581 -3.659 -35.008 -3.945 -35.407 -4.261 C -35.029 -4.641 -34.653 -5.017 -34.281 -5.391 L -34.807 -5.939 L -35.983 -4.755 C -36.08 -4.845 -36.174 -4.939 -36.266 -5.034 L -35.083 -6.225 L -35.603 -6.767 C -35.99 -6.386 -36.378 -5.997 -36.772 -5.602 C -37.091 -5.999 -37.373 -6.429 -37.609 -6.896 L -37.609 -6.896 Z " fill="rgb(0,0,0)"/></g><g><path d=" M -0.233 -0.032 C 2.29 4.76 5.807 8.604 9.612 12.461 L 9.765 12.621 L 9.768 12.619 C 10.693 13.555 11.635 14.493 12.583 15.446 C 11.783 16.079 10.931 16.65 10.042 17.167 L 11.251 18.385 L 14.164 15.452 C 15.958 16.631 17.397 18.168 18.576 19.968 L 19.765 18.77 C 17.965 17.597 16.386 16.2 15.271 14.337 L 18.193 11.394 L 16.984 10.177 C 16.513 11.109 15.949 11.97 15.311 12.763 C 13.452 10.893 11.646 9.099 9.796 7.407 C 9.786 7.399 9.777 7.389 9.768 7.381 C 6.712 4.591 3.529 2.079 -0.233 -0.032 L -0.233 -0.032 Z  M 19.767 -0.032 C 16.247 1.943 13.234 4.269 10.359 6.846 L 11.326 7.766 L 13.733 5.342 L 14.294 5.904 L 11.902 8.313 L 12.944 9.303 C 15.564 6.447 17.928 3.459 19.767 -0.032 L 19.767 -0.032 Z  M 5.8 5.342 L 14.3 13.9 C 14.116 14.09 13.926 14.276 13.732 14.457 L 5.24 5.904 L 5.8 5.342 L 5.8 5.342 Z  M 2.549 10.176 L 1.341 11.394 L 4.262 14.335 C 3.148 16.199 1.569 17.597 -0.231 18.77 L 0.959 19.968 C 2.137 18.168 3.576 16.631 5.371 15.452 L 8.283 18.385 L 9.492 17.167 C 8.604 16.65 7.751 16.078 6.952 15.446 C 7.709 14.685 8.461 13.934 9.205 13.185 L 8.152 12.09 L 5.801 14.458 C 5.608 14.277 5.419 14.09 5.234 13.9 L 7.601 11.517 L 6.561 10.434 C 5.787 11.196 5.01 11.973 4.224 12.764 C 3.585 11.971 3.021 11.11 2.549 10.176 L 2.549 10.176 Z " fill="rgb(0,0,0)"/></g><g><path d=" M 19.991 19.968 C 22.515 24.76 26.031 28.604 29.836 32.461 L 29.99 32.621 L 29.993 32.619 C 30.918 33.555 31.859 34.493 32.807 35.446 C 32.008 36.079 31.155 36.65 30.267 37.167 L 31.476 38.385 L 34.388 35.452 C 36.183 36.631 37.622 38.168 38.8 39.968 L 39.99 38.77 C 38.19 37.597 36.61 36.2 35.496 34.337 L 38.418 31.394 L 37.208 30.177 C 36.737 31.109 36.174 31.97 35.536 32.763 C 33.677 30.893 31.871 29.099 30.02 27.407 C 30.011 27.399 30.002 27.389 29.992 27.381 C 26.937 24.591 23.753 22.079 19.991 19.968 L 19.991 19.968 Z  M 39.991 19.968 C 36.472 21.943 33.459 24.269 30.583 26.846 L 31.55 27.766 L 33.958 25.342 L 34.518 25.904 L 32.126 28.313 L 33.169 29.303 C 35.788 26.447 38.153 23.459 39.991 19.968 L 39.991 19.968 Z  M 26.024 25.342 L 34.525 33.9 C 34.34 34.09 34.15 34.276 33.957 34.457 L 25.464 25.904 L 26.024 25.342 L 26.024 25.342 Z  M 22.774 30.176 L 21.566 31.394 L 24.487 34.335 C 23.372 36.199 21.794 37.597 19.994 38.77 L 21.183 39.968 C 22.362 38.168 23.801 36.631 25.595 35.452 L 28.508 38.385 L 29.717 37.167 C 28.829 36.65 27.976 36.078 27.177 35.446 C 27.934 34.685 28.686 33.934 29.43 33.185 L 28.377 32.09 L 26.026 34.458 C 25.832 34.277 25.644 34.09 25.459 33.9 L 27.826 31.517 L 26.786 30.434 C 26.011 31.196 25.235 31.973 24.448 32.764 C 23.81 31.971 23.245 31.11 22.774 30.176 L 22.774 30.176 Z " fill="rgb(0,0,0)"/></g></g></svg>